<?xml version="1.0" encoding="UTF-8" standalone="no"?>
<!-- Created with Inkscape (http://www.inkscape.org/) -->

<svg
   xmlns:osb="http://www.openswatchbook.org/uri/2009/osb"
   xmlns:dc="http://purl.org/dc/elements/1.1/"
   xmlns:cc="http://creativecommons.org/ns#"
   xmlns:rdf="http://www.w3.org/1999/02/22-rdf-syntax-ns#"
   xmlns:svg="http://www.w3.org/2000/svg"
   xmlns="http://www.w3.org/2000/svg"
   xmlns:sodipodi="http://sodipodi.sourceforge.net/DTD/sodipodi-0.dtd"
   xmlns:inkscape="http://www.inkscape.org/namespaces/inkscape"
   width="158.80582mm"
   height="152.26231mm"
   viewBox="0 0 562.69778 539.51213"
   id="svg2"
   version="1.1"
   inkscape:version="0.91 r13725"
   sodipodi:docname="dessin.svg">
  <defs
     id="defs4">
    <linearGradient
       inkscape:collect="always"
       id="linearGradient5665"
       osb:paint="gradient">
      <stop
         style="stop-color:#000000;stop-opacity:1;"
         offset="0"
         id="stop5667" />
      <stop
         style="stop-color:#000000;stop-opacity:0;"
         offset="1"
         id="stop5669" />
    </linearGradient>
  </defs>
  <sodipodi:namedview
     id="base"
     pagecolor="#ffffff"
     bordercolor="#666666"
     borderopacity="1.0"
     inkscape:pageopacity="0.0"
     inkscape:pageshadow="2"
     inkscape:zoom="0.98994949"
     inkscape:cx="422.50445"
     inkscape:cy="268.86717"
     inkscape:document-units="px"
     inkscape:current-layer="layer1"
     showgrid="false"
     inkscape:window-width="1258"
     inkscape:window-height="824"
     inkscape:window-x="0"
     inkscape:window-y="1"
     inkscape:window-maximized="0"
     fit-margin-top="0"
     fit-margin-left="0"
     fit-margin-right="0"
     fit-margin-bottom="0" />
  <metadata
     id="metadata7">
    <rdf:RDF>
      <cc:Work
         rdf:about="">
        <dc:format>image/svg+xml</dc:format>
        <dc:type
           rdf:resource="http://purl.org/dc/dcmitype/StillImage" />
        <dc:title></dc:title>
      </cc:Work>
    </rdf:RDF>
  </metadata>
  <g
     inkscape:label="Calque 1"
     inkscape:groupmode="layer"
     id="layer1"
     transform="translate(-151.54304,-143.59831)">
    <g
       id="g5735"
       style="stroke:none"
       inkscape:export-xdpi="90"
       inkscape:export-ydpi="90">
      <path
         inkscape:connector-curvature="0"
         id="path3336"
         d="M 432.74912,301.79081 A 111.56372,111.56372 0 0 0 321.1852,413.35331 111.56372,111.56372 0 0 0 432.74912,524.91723 111.56372,111.56372 0 0 0 544.31304,413.35331 111.56372,111.56372 0 0 0 432.74912,301.79081 Z m 0,18.2464 a 93.317314,93.317314 0 0 1 93.31752,93.3161 93.317314,93.317314 0 0 1 -93.31752,93.31751 93.317314,93.317314 0 0 1 -93.31752,-93.31751 93.317314,93.317314 0 0 1 93.31752,-93.3161 z"
         style="fill:#2b98f0;fill-opacity:1;fill-rule:evenodd;stroke:none;stroke-width:0.72985607px;stroke-linecap:butt;stroke-linejoin:miter;stroke-opacity:1" />
      <path
         inkscape:connector-curvature="0"
         id="path5590"
         d="m 437.3205,529.77334 a 62.438471,62.438471 0 0 0 -62.43858,62.43779 62.438471,62.438471 0 0 0 62.43858,62.43858 62.438471,62.438471 0 0 0 62.43859,-62.43858 62.438471,62.438471 0 0 0 -62.43859,-62.43779 z m 0,10.2119 a 52.22657,52.22657 0 0 1 52.22669,52.22589 52.22657,52.22657 0 0 1 -52.22669,52.22668 52.22657,52.22657 0 0 1 -52.22668,-52.22668 52.22657,52.22657 0 0 1 52.22668,-52.22589 z"
         style="fill:#2b98f0;fill-opacity:1;fill-rule:evenodd;stroke:none;stroke-width:0.40847597px;stroke-linecap:butt;stroke-linejoin:miter;stroke-opacity:1" />
      <path
         style="fill:#2b98f0;fill-opacity:1;fill-rule:evenodd;stroke:none;stroke-width:0.40847597px;stroke-linecap:butt;stroke-linejoin:miter;stroke-opacity:1"
         d="m 428.74907,172.05904 a 62.438471,62.438471 0 0 0 -62.43858,62.43779 62.438471,62.438471 0 0 0 62.43858,62.43858 62.438471,62.438471 0 0 0 62.43859,-62.43858 62.438471,62.438471 0 0 0 -62.43859,-62.43779 z m 0,10.2119 a 52.22657,52.22657 0 0 1 52.22669,52.22589 52.22657,52.22657 0 0 1 -52.22669,52.22668 52.22657,52.22657 0 0 1 -52.22668,-52.22668 52.22657,52.22657 0 0 1 52.22668,-52.22589 z"
         id="path5606"
         inkscape:connector-curvature="0" />
      <path
         inkscape:connector-curvature="0"
         id="path5608"
         d="m 554.46336,218.63047 a 62.438471,62.438471 0 0 0 -62.43858,62.43779 62.438471,62.438471 0 0 0 62.43858,62.43858 62.438471,62.438471 0 0 0 62.43859,-62.43858 62.438471,62.438471 0 0 0 -62.43859,-62.43779 z m 0,10.2119 a 52.22657,52.22657 0 0 1 52.22669,52.22589 52.22657,52.22657 0 0 1 -52.22669,52.22668 52.22657,52.22657 0 0 1 -52.22668,-52.22668 52.22657,52.22657 0 0 1 52.22668,-52.22589 z"
         style="fill:#2b98f0;fill-opacity:1;fill-rule:evenodd;stroke:none;stroke-width:0.40847597px;stroke-linecap:butt;stroke-linejoin:miter;stroke-opacity:1" />
      <path
         style="fill:#2b98f0;fill-opacity:1;fill-rule:evenodd;stroke:none;stroke-width:0.40847597px;stroke-linecap:butt;stroke-linejoin:miter;stroke-opacity:1"
         d="m 612.17765,346.91618 a 62.438471,62.438471 0 0 0 -62.43858,62.43779 62.438471,62.438471 0 0 0 62.43858,62.43858 62.438471,62.438471 0 0 0 62.43859,-62.43858 62.438471,62.438471 0 0 0 -62.43859,-62.43779 z m 0,10.2119 a 52.22657,52.22657 0 0 1 52.22669,52.22589 52.22657,52.22657 0 0 1 -52.22669,52.22668 52.22657,52.22657 0 0 1 -52.22668,-52.22668 52.22657,52.22657 0 0 1 52.22668,-52.22589 z"
         id="path5610"
         inkscape:connector-curvature="0" />
      <path
         inkscape:connector-curvature="0"
         id="path5612"
         d="m 564.17765,475.48761 a 62.438471,62.438471 0 0 0 -62.43858,62.4378 62.438471,62.438471 0 0 0 62.43858,62.43858 62.438471,62.438471 0 0 0 62.43859,-62.43858 62.438471,62.438471 0 0 0 -62.43859,-62.4378 z m 0,10.2119 a 52.22657,52.22657 0 0 1 52.22669,52.2259 52.22657,52.22657 0 0 1 -52.22669,52.22668 52.22657,52.22657 0 0 1 -52.22668,-52.22668 52.22657,52.22657 0 0 1 52.22668,-52.2259 z"
         style="fill:#2b98f0;fill-opacity:1;fill-rule:evenodd;stroke:none;stroke-width:0.40847597px;stroke-linecap:butt;stroke-linejoin:miter;stroke-opacity:1" />
      <path
         style="fill:#2b98f0;fill-opacity:1;fill-rule:evenodd;stroke:none;stroke-width:0.40847597px;stroke-linecap:butt;stroke-linejoin:miter;stroke-opacity:1"
         d="m 309.3205,481.77334 a 62.438471,62.438471 0 0 0 -62.43858,62.43779 62.438471,62.438471 0 0 0 62.43858,62.43858 62.438471,62.438471 0 0 0 62.43859,-62.43858 62.438471,62.438471 0 0 0 -62.43859,-62.43779 z m 0,10.2119 a 52.22657,52.22657 0 0 1 52.22669,52.22589 52.22657,52.22657 0 0 1 -52.22669,52.22668 52.22657,52.22657 0 0 1 -52.22668,-52.22668 52.22657,52.22657 0 0 1 52.22668,-52.22589 z"
         id="path5614"
         inkscape:connector-curvature="0" />
      <path
         inkscape:connector-curvature="0"
         id="path5616"
         d="m 253.60621,356.05904 a 62.438471,62.438471 0 0 0 -62.43858,62.43779 62.438471,62.438471 0 0 0 62.43858,62.43858 62.438471,62.438471 0 0 0 62.43859,-62.43858 62.438471,62.438471 0 0 0 -62.43859,-62.43779 z m 0,10.2119 a 52.22657,52.22657 0 0 1 52.22669,52.22589 52.22657,52.22657 0 0 1 -52.22669,52.22668 52.22657,52.22657 0 0 1 -52.22668,-52.22668 52.22657,52.22657 0 0 1 52.22668,-52.22589 z"
         style="fill:#2b98f0;fill-opacity:1;fill-rule:evenodd;stroke:none;stroke-width:0.40847597px;stroke-linecap:butt;stroke-linejoin:miter;stroke-opacity:1" />
      <path
         style="fill:#2b98f0;fill-opacity:1;fill-rule:evenodd;stroke:none;stroke-width:0.40847597px;stroke-linecap:butt;stroke-linejoin:miter;stroke-opacity:1"
         d="m 303.60621,226.05904 a 62.438471,62.438471 0 0 0 -62.43858,62.43779 62.438471,62.438471 0 0 0 62.43858,62.43858 62.438471,62.438471 0 0 0 62.43859,-62.43858 62.438471,62.438471 0 0 0 -62.43859,-62.43779 z m 0,10.2119 a 52.22657,52.22657 0 0 1 52.22669,52.22589 52.22657,52.22657 0 0 1 -52.22669,52.22668 52.22657,52.22657 0 0 1 -52.22668,-52.22668 52.22657,52.22657 0 0 1 52.22668,-52.22589 z"
         id="path5618"
         inkscape:connector-curvature="0" />
    </g>
    <rect
       style="fill:none;fill-opacity:1;stroke:none;stroke-width:0.708;stroke-opacity:1;stroke-miterlimit:4;stroke-dasharray:none"
       id="rect5641"
       width="561.78998"
       height="538.60431"
       x="151.99695"
       y="144.05222"
       inkscape:export-xdpi="90"
       inkscape:export-ydpi="90" />
  </g>
</svg>
